<?xml version="1.0" encoding="utf-8"?>
<!-- Generator: Adobe Illustrator 18.0.0, SVG Export Plug-In . SVG Version: 6.00 Build 0)  -->
<!DOCTYPE svg PUBLIC "-//W3C//DTD SVG 1.1//EN" "http://www.w3.org/Graphics/SVG/1.1/DTD/svg11.dtd">
<svg version="1.1" id="Ebene_1" xmlns="http://www.w3.org/2000/svg" xmlns:xlink="http://www.w3.org/1999/xlink" x="0px" y="0px"
	 viewBox="0 0 1644 816" enable-background="new 0 0 1644 816" xml:space="preserve">
<g>
	<rect x="1228.4" y="214.2" fill="#D86113" width="14.9" height="137.7"/>
	<rect x="1228.5" y="473.3" fill="#D86113" width="14.9" height="129.9"/>
	<g>
		<polygon fill="#D86113" points="254.5,405.7 289,405.7 289,383.1 323.5,383.1 323.5,352.9 220,352.9 220,383.1 254.5,383.1 		"/>
		<rect x="254.5" y="420.5" fill="#D86113" width="34.5" height="53.1"/>
	</g>
	<g>
		<polygon fill="#D86113" points="409.7,405.7 409.8,398.2 375.2,398.2 375.2,383.1 435.5,383.1 435.6,352.9 340.7,352.9 
			340.7,405.7 		"/>
		<polygon fill="#D86113" points="375.2,428.4 409.7,428.4 409.7,420.5 340.7,420.5 340.7,473.6 435.5,473.6 435.6,443.4 
			375.2,443.4 		"/>
	</g>
	<g>
		<polygon fill="#D86113" points="495,405.7 502.4,381.3 509.8,405.7 544.3,405.7 528.3,352.9 476.5,352.9 460.5,405.7 		"/>
		<polygon fill="#D86113" points="456,420.5 439.9,473.6 474.4,473.6 483.5,443.4 521.3,443.4 530.4,473.6 564.9,473.6 548.8,420.5 
					"/>
	</g>
	<g>
		<polygon fill="#D86113" points="641.3,405.7 625.3,352.9 577.9,352.9 577.9,405.7 		"/>
		<polygon fill="#D86113" points="668.5,352.9 652.4,405.7 715.8,405.7 715.8,420.5 647.9,420.5 646.9,424 645.8,420.5 577.9,420.5 
			577.9,473.6 612.4,473.6 612.4,424 627.5,473.6 666.3,473.6 681.4,424 681.4,473.6 715.9,473.6 715.9,352.9 		"/>
	</g>
	<rect x="1288.1" y="405.7" fill="#D86113" width="142.5" height="14.8"/>
	<g>
		<path fill="#D86113" d="M1174.3,405.7V368l-15.1-15.1h-88.4v52.8H1174.3z M1105.2,383.1h34.5v15l-34.5,0.1V383.1z"/>
		<polygon fill="#D86113" points="1166.9,420.5 1070.7,420.5 1070.7,473.6 1105.2,473.6 1105.2,428.4 1122.2,428.4 1139.7,473.6 
			1178.6,473.6 1160.4,427 		"/>
	</g>
	<rect x="1040.2" y="405.7" fill="#D86113" width="30.8" height="14.8"/>
	<polygon fill="#D86113" points="963.5,405.7 963.5,420.5 914.2,420.5 924.2,405.7 	"/>
	<g>
		<polygon fill="#D86113" points="948.8,352.9 853.9,352.9 853.9,383.1 905.6,383.1 888.6,405.7 925.3,405.7 948.7,374.4 		"/>
		<polygon fill="#D86113" points="925.3,405.7 914.1,420.5 877.5,420.5 853.8,452.1 853.8,473.6 948.7,473.6 948.8,443.4 897,443.4 
					"/>
	</g>
	<rect x="1502.7" y="405.7" fill="#D86113" width="113.9" height="14.8"/>
	<polygon fill="#D86113" points="888.6,405.7 877.6,420.5 715.9,420.5 715.9,405.7 	"/>
	<rect x="1228.5" y="675.3" fill="#D86113" width="15.1" height="113.9"/>
	<rect x="1228.5" y="28" fill="#D86113" width="14.8" height="113.9"/>
	<g>
		<polygon fill="#D86113" points="1219.1,383.1 1228.5,383.1 1228.5,352.9 1199.6,352.9 1184.6,368 1184.6,405.7 1219.1,405.7 		"/>
		<polygon fill="#D86113" points="1228.5,443.4 1219.1,443.4 1219.1,420.5 1184.6,420.5 1184.6,458.5 1199.6,473.6 1228.5,473.6 		
			"/>
		<polygon fill="#D86113" points="1273,352.9 1243.3,352.9 1243.3,383.1 1253.6,383.1 1253.6,405.7 1288.1,405.7 1288.1,368 		"/>
		<polygon fill="#D86113" points="1253.6,443.4 1243.4,443.4 1243.4,473.6 1273,473.6 1288.1,458.5 1288.1,420.5 1253.6,420.5 		"/>
	</g>
	<path fill="#D86113" d="M998,428.4v15.1h46.5c-2-11.3-3.1-22.9-3.1-34.8c0-8.7,0.6-17.2,1.7-25.6h-45v15.1h34.6l-0.1,30.2H998z"/>
	<g>
		<path fill="#D86113" d="M1228.5,142c-124.9,3.4-228.3,92.7-253.5,210.9h74.4c23.3-78,94.2-135.5,179-138.7V142z"/>
		<path fill="#D86113" d="M1502.7,408.6c0-144.8-115.4-262.7-259.3-266.6v72.2c103,3.9,185.6,87.8,187.1,191.5h71.9V420
			C1502.6,416.2,1502.7,412.4,1502.7,408.6z"/>
	</g>
	<g>
		<path fill="#D86113" d="M1228.5,603c-81.4-3.1-150-56.1-176-129.4h-75.3c28.5,113.6,129.7,198.3,251.3,201.6V603z"/>
		<path fill="#D86113" d="M1430.3,420.5v-4c-4.1,101.2-85.4,182.5-186.7,186.5v72.2c139.8-4,252.7-115.5,258.8-254.7H1430.3z"/>
	</g>
</g>
</svg>
